<?xml version="1.0" encoding="UTF-8"?>
<svg id="Layer_1" xmlns="http://www.w3.org/2000/svg" xmlns:xlink="http://www.w3.org/1999/xlink" version="1.1" viewBox="0 0 1179.71 1019.62">
  <!-- Generator: Adobe Illustrator 29.8.3, SVG Export Plug-In . SVG Version: 2.1.1 Build 3)  -->
  <defs>
    <style>
      .st0 {
        fill: url(#linear-gradient1);
      }

      .st1 {
        fill: url(#radial-gradient);
      }

      .st2 {
        fill: url(#linear-gradient);
      }

      .st3 {
        fill: #0080ff;
      }
    </style>
    <linearGradient id="linear-gradient" x1="407.99" y1="252.18" x2="617.91" y2="529.87" gradientUnits="userSpaceOnUse">
      <stop offset=".56" stop-color="#32c2ff"/>
      <stop offset=".63" stop-color="#28b4ff"/>
      <stop offset=".97" stop-color="#0076ff"/>
    </linearGradient>
    <radialGradient id="radial-gradient" cx="325.33" cy="457.96" fx="325.33" fy="457.96" r="188.97" gradientUnits="userSpaceOnUse">
      <stop offset=".15" stop-color="#0027b9"/>
      <stop offset=".35" stop-color="#0043cf"/>
      <stop offset=".62" stop-color="#0064e9"/>
      <stop offset=".85" stop-color="#0078f9"/>
      <stop offset="1" stop-color="#0080ff"/>
    </radialGradient>
    <linearGradient id="linear-gradient1" x1="695.81" y1="553.32" x2="1006" y2="223.13" gradientUnits="userSpaceOnUse">
      <stop offset=".12" stop-color="#00ff86"/>
      <stop offset=".17" stop-color="#00f58e"/>
      <stop offset=".54" stop-color="#00b1ca"/>
      <stop offset=".81" stop-color="#0086f0"/>
      <stop offset=".94" stop-color="#0076ff"/>
    </linearGradient>
  </defs>
  <g>
    <path class="st2" d="M540.31,454.83h-114.53c-75.05,0-117.32-37.86-148.75-80.21h0c16.82,22.93,32.49,51.08,48.13,80.27,9.24,17.26,18.48,34.88,27.92,51.99,36.83,66.74,76.89,102.86,133.7,102.86,45.2,0,86.9-31.35,129.13-101.73,10.17-16.95,20.37-34.83,30.66-53.12,23.49-41.75,47.42-85.59,72.48-125.17h0c-36.58,56.75-77.12,125.12-178.74,125.12Z"/>
    <path class="st1" d="M277.03,374.62c-43.39-59.17-74.88-55.14-87.18-51.12v131.39h135.31c-15.63-29.18-31.31-57.33-48.13-80.27Z"/>
    <path class="st0" d="M719.05,329.71c-25.06,39.59-48.99,83.42-72.48,125.17h343.09v-247.35c-116.04-43.7-188.42-7.68-270.61,122.17Z"/>
  </g>
  <path class="st3" d="M712.72,619.46l19.78,4.88c20.06,4.88,31.36,14.2,31.36,24.5,0,11.92-8.6,20.6-30.01,20.6-23.31,0-48.24-5.96-67.49-16.26v38.49c17.89,7.32,42.55,11.93,60.98,11.93,50.41,0,76.7-19.51,76.7-55.29,0-27.1-17.89-46.89-49.87-54.75l-24.93-6.23c-16.53-4.07-26.23-11.65-26.23-20.87,0-12.47,11.45-18.97,34.49-18.97,15.3,0,35.96,5.29,52.79,14.04v-35.36c-14.47-5.84-35.7-12.28-55.09-12.28-45.53,0-72.09,22.22-72.09,53.66,0,26.29,17.07,43.8,49.6,51.93ZM233.63,760.76c3.55,0,6.08-2.58,6.08-5.74,0-4.13-2.92-6.14-6.08-6.14-3.27,0-6.2,2.01-6.2,6.14,0,3.15,2.59,5.74,6.2,5.74ZM216.99,760.76c3.55,0,6.08-2.58,6.08-5.74,0-4.13-2.92-6.14-6.08-6.14-3.27,0-6.2,2.01-6.2,6.14,0,3.15,2.59,5.74,6.2,5.74ZM567.28,760.76c3.55,0,6.08-2.58,6.08-5.74,0-4.13-2.93-6.14-6.08-6.14-3.27,0-6.2,2.01-6.2,6.14,0,3.15,2.59,5.74,6.2,5.74ZM270.64,757.59c3.56,0,6.08-2.58,6.08-5.73,0-4.13-2.93-6.14-6.08-6.14-3.27,0-6.19,2.01-6.19,6.14,0,3.15,2.58,5.73,6.19,5.73ZM583.91,760.76c3.55,0,6.08-2.58,6.08-5.74,0-4.13-2.92-6.14-6.08-6.14-3.27,0-6.2,2.01-6.2,6.14,0,3.15,2.59,5.74,6.2,5.74ZM287.28,757.59c3.56,0,6.08-2.58,6.08-5.73,0-4.13-2.92-6.14-6.08-6.14-3.27,0-6.19,2.01-6.19,6.14,0,3.15,2.58,5.73,6.19,5.73ZM617.2,806.53c0,5.51-2.64,9.41-8.38,9.41h-9.71c-6.31,0-8.95-3.33-8.95-9.41v-37.17h-11.19v7.63c-13.71,3.38-38.83,12.85-38.83,30.18,0,12.33,9.12,19.22,22.25,19.22,8.6,0,14.86-3.22,18.3-9.01,2.64,7.06,8.55,11.18,20.14,11.18h6.68c14.51,0,20.87-7.98,20.87-22.31v-24.15h-11.18v24.44ZM578.98,802.91c0,7.34-8.32,10.84-15.37,10.84-7.28,0-12.08-2.86-12.16-7.97-.13-8.09,16.52-13.72,27.53-16.3v13.43ZM619.49,836.13c-3.27,0-6.19,2.01-6.19,6.13,0,3.15,2.58,5.74,6.19,5.74,3.56,0,6.08-2.59,6.08-5.74,0-4.13-2.93-6.13-6.08-6.13ZM939.89,806.53c0,6.08-2.64,9.41-8.94,9.41h-9.18c-5.27,0-7.92-2.29-8.7-6.59-.13-.54-.19-2.99-.19-3.67v-1.82l-.06-.04v-24.02h-11.19v25.01c0,7.17-3.9,11.07-11.07,11.07-6.25,0-10.55-4.76-10.55-11.3v-16.87h-11.19v15.78c0,.47-.03,2.24-.1,2.65-.44,6.31-4.28,9.74-10.98,9.74-6.25,0-10.55-4.76-10.56-11.3v-16.87h-11.18v15.83c0,.46-.03,2.15-.09,2.56-.43,6.03-3.92,9.47-9.87,9.79-.28.03-1.45.05-1.76.05h-18.1c7.07-6.21,11.27-14.06,11.56-21.92.02-.57.02-1.14,0-1.69-.56-12.61-13.75-18.49-27.16-18.49-9.29,0-19.45,2.35-27.31,5.97l-2.01,6.26c1.49,9.29,5.97,20.48,12.33,29.89h-28.63v-7.21c0-.65-.03-3.25-.1-3.86-.74-15.32-11.11-24.67-25.08-24.67-13.31,0-24.5,10.9-24.5,25.19,0,14.51,9.75,23.17,22.77,23.17h15.65c-1.14,10.08-9.02,14.47-18.92,14.47-5.8,0-13.5-2.66-18.51-5.61l-.02,11.45c5.11,3.84,13.6,6.22,20.36,6.14,13.88-.17,27.25-8.38,28.28-26.45h24.21c.23,0,1.15,0,1.38,0,7.36-.08,14.12-1.38,20.07-3.55,3.9,2.35,7.69,3.56,13.19,3.56h21.67c11.41,0,18.07-4.65,20.6-12.8,2.01,7.17,8.03,12.8,16.35,12.8,9.18,0,14.62-4.76,16.63-11.99,2.07,6.83,7.58,11.99,15.61,11.99,7.63,0,12.85-3.16,15.72-8.49,2.16,5.06,6.29,8.43,13.61,8.49.07,0,.34,0,.41,0h6.33c14.74,0,20.36-9.12,20.36-22.31v-55.7h-11.18v55.99ZM733.8,815.94h-14.05c-9.01,0-13.25-4.94-13.25-11.07,0-7.69,6.48-12.04,13.14-12.04,7.69,0,14.17,3.44,14.17,13.25v9.87ZM785.65,814.44c-5.39-7.8-10.21-17.95-12.9-25.53,5.16-1.84,11.87-3.27,18.35-3.27,9.06,0,15.72,3.96,15.72,10.04,0,6.48-7.52,15.26-21.17,18.76ZM968.3,828.56h11.18l.22-78.02h-11.19l-.22,78.02ZM646.72,778.99l-2.76,12.62c19.9-1.49,30.52,7.51,30.52,15.26,0,5.05-3.67,9.07-12.22,9.07h-22.94v12.62h22.26c14.8,0,22.87-8.56,23.8-18.64,1.62-17.52-14.85-33.33-38.66-30.92ZM278.85,764.71c-13.25,0-22.55,10.73-22.55,22.77,0,13.82,9.47,20.65,21.34,20.65h12.85c-.75,4.82-4.19,7.8-11.75,7.81h-29.91c-5.9,0-8.55-2.93-8.88-8.27-.05-.35-.07-1.88-.07-2.28v-36.03h-11.19v7.63c-13.71,3.38-38.84,12.85-38.84,30.18,0,12.33,9.12,19.22,22.25,19.22,8.6,0,14.86-3.22,18.3-9.01,2.64,7.06,8.55,11.18,20.14,11.18h1.43l27.67.06c14.75.06,21.98-9.89,22.08-22.78,0-.09,0-.44,0-.53v-15.12c0-16.12-9.64-25.47-22.89-25.47ZM228.69,802.91c0,7.34-8.32,10.84-15.37,10.84-7.28,0-12.08-2.86-12.16-7.97-.13-8.09,16.52-13.72,27.53-16.3v13.43ZM290.72,797.81h-11.53c-7.92,0-12.91-4.19-12.91-10.79,0-6.02,4.99-11.41,12.22-11.41,7.17,0,12.22,4.36,12.22,13.88v8.32ZM909.14,513.73c-55.64,0-89.84,39.17-89.84,94.72,0,62.63,42.37,95.27,96.11,95.27,20.63,0,43.4-4.1,64.3-13.87v-36.1c-24.7,10.59-44.51,15.77-66.77,15.77-24.86,0-46.53-13.54-52.25-44.51h127.16c9.97-59.79-17.51-111.28-78.71-111.28ZM860,592.88c4.3-28.92,21.67-44.95,49.14-44.95,24.6,0,42.27,16.43,42.27,44.95h-91.41ZM479.13,806.53c0,6.08-2.64,9.41-8.94,9.41h-8.62c-6.31,0-8.95-3.33-8.95-9.41v-55.99h-11.19v55.99c0,6.08-2.64,9.41-8.94,9.41h-8.6c-6.19,0-8.83-3.16-8.95-9.07.06-.52.11-2.7.11-3.21,0-13.48-11.07-25.93-28.73-23.98-8.09.89-15.89,5.97-23.18,13.94l.23-43.08h-11.19l-.23,58.05-4.42,7.35h-11.89c-6.31,0-8.94-3.33-8.94-9.41v-55.99h-11.19v55.7c0,13.19,5.62,22.31,20.36,22.31h48.38c13.31,0,22.37-5.34,26.96-12.33,1.72,7.46,5.91,12.33,15.09,12.33h5.96c9.06,0,14.63-3.44,17.61-9.12,2.12,5.56,6.37,9.12,14.11,9.12h5.98c14.74,0,20.36-9.12,20.36-22.31v-55.7h-11.19v55.99ZM384.88,815.94h-28.45c9.58-14.8,21.86-23.16,31.73-23.81,10.21-.67,15.71,5.05,15.71,11.47,0,6.2-5.91,12.34-18.99,12.34ZM602.86,836.13c-3.27,0-6.19,2.01-6.19,6.13,0,3.15,2.58,5.74,6.19,5.74,3.56,0,6.09-2.59,6.09-5.74,0-4.13-2.93-6.13-6.09-6.13Z"/>
</svg>