<svg width="72" height="60" viewBox="0 0 72 60" fill="none" xmlns="http://www.w3.org/2000/svg">
<path d="M8.2116 50.6962C8.2116 50.9804 8.4438 51.2131 8.7687 51.2131C9.0891 51.2131 9.3159 50.9804 9.3159 50.6962C9.3159 50.3237 9.0531 50.1424 8.7687 50.1424C8.4744 50.1424 8.2116 50.3237 8.2116 50.6962ZM48.9609 43.2606C46.863 43.2606 44.6193 42.723 42.8868 41.7939V45.2659C44.4969 45.9262 46.7163 46.342 48.375 46.342C52.9119 46.342 55.278 44.5821 55.278 41.3546C55.278 38.91 53.6679 37.1249 50.7897 36.4158L48.546 35.8539C47.0583 35.4867 46.1853 34.803 46.1853 33.9713C46.1853 32.8464 47.2158 32.2601 49.2894 32.2601C50.6664 32.2601 52.5258 32.7373 54.0405 33.5266V30.3369C52.7382 29.8101 50.8275 29.2292 49.0824 29.2292C44.9847 29.2292 42.5943 31.2336 42.5943 34.0696C42.5943 36.4411 44.1306 38.0206 47.0583 38.754L48.8385 39.1942C50.6439 39.6344 51.6609 40.4751 51.6609 41.4042C51.6609 42.4794 50.8869 43.2624 48.96 43.2624L48.9609 43.2606ZM34.9083 50.9804C34.9083 51.2645 35.1414 51.4982 35.4663 51.4982C35.7858 51.4982 36.0135 51.2654 36.0135 50.9804C36.0135 50.6078 35.7507 50.4265 35.4663 50.4265C35.172 50.4265 34.9083 50.6078 34.9083 50.9804ZM1.8855 50.9804C1.8855 51.2645 2.1186 51.4982 2.4435 51.4982C2.763 51.4982 2.9907 51.2654 2.9907 50.9804C2.9907 50.6078 2.7279 50.4265 2.4435 50.4265C2.1492 50.4265 1.8855 50.6078 1.8855 50.9804ZM33.4107 50.9804C33.4107 51.2645 33.6438 51.4982 33.9687 51.4982C34.2882 51.4982 34.5159 51.2654 34.5159 50.9804C34.5159 50.6078 34.2522 50.4265 33.9687 50.4265C33.6744 50.4265 33.4107 50.6078 33.4107 50.9804ZM6.714 50.6962C6.714 50.9804 6.9462 51.2131 7.2711 51.2131C7.5915 51.2131 7.8183 50.9804 7.8183 50.6962C7.8183 50.3237 7.5546 50.1424 7.2711 50.1424C6.9768 50.1424 6.714 50.3237 6.714 50.6962ZM3.3822 50.9804C3.3822 51.2645 3.6153 51.4982 3.9402 51.4982C4.2597 51.4982 4.4874 51.2654 4.4874 50.9804C4.4874 50.6078 4.2246 50.4265 3.9402 50.4265C3.6459 50.4265 3.3822 50.6078 3.3822 50.9804ZM70.0614 57.6141H71.0676L71.0874 50.5763H70.0803L70.0605 57.6141H70.0614ZM67.5036 55.6277C67.5036 56.1762 67.266 56.4766 66.699 56.4766H65.8728C65.3985 56.4766 65.16 56.27 65.0898 55.8821C65.0781 55.8334 65.0727 55.6124 65.0727 55.5511V55.3869L65.0673 55.3833V53.2166H64.0602V55.4726C64.0602 56.1194 63.7092 56.4712 63.0639 56.4712C62.5014 56.4712 62.1144 56.0418 62.1144 55.4518V53.9301H61.1073V55.3535C61.1073 55.3959 61.1046 55.5556 61.0983 55.5926C61.0587 56.1618 60.7131 56.4712 60.1101 56.4712C59.5476 56.4712 59.1606 56.0418 59.1597 55.4518V53.9301H58.1535V55.358C58.1535 55.3995 58.1508 55.552 58.1454 55.589C58.1067 56.1329 57.7926 56.4432 57.2571 56.4721C57.2319 56.4748 57.1266 56.4766 57.0987 56.4766H55.4697C56.106 55.9164 56.484 55.2083 56.5101 54.4993C56.5119 54.4479 56.5119 54.3964 56.5101 54.3468C56.4597 53.2093 55.2726 52.6789 54.0657 52.6789C53.2296 52.6789 52.3152 52.8909 51.6087 53.2175L51.4278 53.7821C51.5619 54.6202 51.9651 55.6296 52.5375 56.4784H49.9608V55.828C49.9608 55.7694 49.9581 55.5348 49.9518 55.4798C49.8852 54.0979 48.9519 53.2544 47.6946 53.2544C46.4967 53.2544 45.4896 54.2377 45.4896 55.5267C45.4896 56.8356 46.3671 57.6168 47.5389 57.6168H48.9474C48.8448 58.526 48.1356 58.922 47.2446 58.922C46.7226 58.922 46.0296 58.6821 45.5787 58.416L45.5769 59.4488C46.0368 59.7952 46.8009 60.0099 47.4093 60.0027C48.6585 59.9874 49.8618 59.2468 49.9545 57.6168H52.1334C52.1541 57.6168 52.2369 57.6168 52.2576 57.6168C52.92 57.6096 53.5284 57.4923 54.0639 57.2965C54.4149 57.5085 54.756 57.6177 55.251 57.6177H57.2013C58.2282 57.6177 58.8276 57.1982 59.0553 56.4631C59.2362 57.1098 59.778 57.6177 60.5268 57.6177C61.353 57.6177 61.8426 57.1883 62.0235 56.5361C62.2098 57.1522 62.7057 57.6177 63.4284 57.6177C64.1151 57.6177 64.5849 57.3326 64.8432 56.8518C65.0376 57.3083 65.4093 57.6123 66.0681 57.6177C66.0744 57.6177 66.0987 57.6177 66.105 57.6177H66.6747C68.0013 57.6177 68.5071 56.795 68.5071 55.6052V50.5808H67.5009V55.6314L67.5036 55.6277ZM48.9555 56.4757H47.691C46.8801 56.4757 46.4985 56.0301 46.4985 55.4771C46.4985 54.7834 47.0817 54.391 47.6811 54.391C48.3732 54.391 48.9564 54.7013 48.9564 55.5863V56.4766L48.9555 56.4757ZM53.6229 56.3413C53.1378 55.6377 52.704 54.7221 52.4619 54.0383C52.9263 53.8724 53.5302 53.7434 54.1134 53.7434C54.9288 53.7434 55.5282 54.1006 55.5282 54.649C55.5282 55.2336 54.8514 56.0256 53.6229 56.3413ZM38.4624 55.6277C38.4624 56.1248 38.2248 56.4766 37.7082 56.4766H36.8343C36.2664 56.4766 36.0288 56.1762 36.0288 55.6277V52.2748H35.0217V52.9631C33.7878 53.268 31.527 54.1222 31.527 55.6855C31.527 56.7977 32.3478 57.4192 33.5295 57.4192C34.3035 57.4192 34.8669 57.1288 35.1765 56.6065C35.4141 57.2433 35.946 57.615 36.9891 57.615H37.5903C38.8962 57.615 39.4686 56.8951 39.4686 55.6025V53.424H38.4624V55.6287V55.6277ZM35.0217 55.3012C35.0217 55.9633 34.2729 56.279 33.6384 56.279C32.9832 56.279 32.5512 56.021 32.544 55.5601C32.5323 54.8303 34.0308 54.3225 35.0217 54.0897V55.3012ZM41.1183 53.1435L40.8699 54.2819C42.6609 54.1475 43.6167 54.9593 43.6167 55.6584C43.6167 56.114 43.2864 56.4766 42.5169 56.4766H40.4523V57.615H42.4557C43.7877 57.615 44.514 56.8428 44.5977 55.9335C44.7435 54.3531 43.2612 52.927 41.1183 53.1444V53.1435ZM64.737 29.2157C59.7294 29.2157 56.6514 32.749 56.6514 37.7599C56.6514 43.4095 60.4647 46.3537 65.3013 46.3537C67.158 46.3537 69.2073 45.9839 71.0883 45.1026V41.8462C68.8653 42.8015 67.0824 43.2687 65.079 43.2687C62.8416 43.2687 60.8913 42.0474 60.3765 39.2537H71.8209C72.7182 33.8603 70.245 29.2157 64.737 29.2157ZM60.3144 36.3554C60.7014 33.7467 62.2647 32.3007 64.737 32.3007C66.951 32.3007 68.5413 33.7828 68.5413 36.3554H60.3144ZM8.01 51.8554C6.8175 51.8554 5.9805 52.8233 5.9805 53.9093C5.9805 55.156 6.8328 55.7721 7.9011 55.7721H9.0576C8.9901 56.2069 8.6805 56.4757 8.0001 56.4766H5.3082C4.7772 56.4766 4.5387 56.2123 4.509 55.7306C4.5045 55.699 4.5027 55.561 4.5027 55.5249V52.2748H3.4956V52.9631C2.2617 53.268 0 54.1222 0 55.6855C0 56.7977 0.8208 57.4192 2.0025 57.4192C2.7765 57.4192 3.3399 57.1288 3.6495 56.6065C3.8871 57.2433 4.419 57.615 5.4621 57.615H5.5908L8.0811 57.6204C9.4086 57.6258 10.0593 56.7283 10.0683 55.5655C10.0683 55.5574 10.0683 55.5258 10.0683 55.5177V54.1538C10.0683 52.6997 9.2007 51.8563 8.0082 51.8563L8.01 51.8554ZM3.4965 55.3012C3.4965 55.9633 2.7477 56.279 2.1132 56.279C1.458 56.279 1.026 56.021 1.0188 55.5601C1.0071 54.8303 2.5056 54.3225 3.4965 54.0897V55.3012ZM9.0783 54.8412H8.0406C7.3278 54.8412 6.8787 54.4632 6.8787 53.8678C6.8787 53.3248 7.3278 52.8386 7.9785 52.8386C8.6238 52.8386 9.0783 53.2319 9.0783 54.0907V54.8412ZM26.0352 55.6277C26.0352 56.1762 25.7976 56.4766 25.2306 56.4766H24.4548C23.8869 56.4766 23.6493 56.1762 23.6493 55.6277V50.5772H22.6422V55.6277C22.6422 56.1762 22.4046 56.4766 21.8376 56.4766H21.0636C20.5065 56.4766 20.2689 56.1915 20.2581 55.6584C20.2635 55.6115 20.268 55.4149 20.268 55.3689C20.268 54.1529 19.2717 53.0298 17.6823 53.2057C16.9542 53.286 16.2522 53.7443 15.5961 54.4632L15.6168 50.5772H14.6097L14.589 55.8136L14.1912 56.4766H13.1211C12.5532 56.4766 12.3165 56.1762 12.3165 55.6277V50.5772H11.3094V55.6016C11.3094 56.7914 11.8152 57.6141 13.1418 57.6141H17.496C18.6939 57.6141 19.5093 57.1324 19.9224 56.5018C20.0772 57.1748 20.4543 57.6141 21.2805 57.6141H21.8169C22.6323 57.6141 23.1336 57.3038 23.4018 56.7914C23.5926 57.2929 23.9751 57.6141 24.6717 57.6141H25.2099C26.5365 57.6141 27.0423 56.7914 27.0423 55.6016V50.5772H26.0352V55.6277ZM17.5527 56.4757H14.9922C15.8544 55.1406 16.9596 54.3865 17.8479 54.3279C18.7668 54.2675 19.2618 54.7834 19.2618 55.3625C19.2618 55.9218 18.7299 56.4757 17.5527 56.4757ZM37.1709 58.2969C36.8766 58.2969 36.6138 58.4782 36.6138 58.8499C36.6138 59.134 36.846 59.3677 37.1709 59.3677C37.4913 59.3677 37.719 59.134 37.719 58.8499C37.719 58.4773 37.4553 58.2969 37.1709 58.2969ZM38.6685 58.2969C38.3742 58.2969 38.1114 58.4782 38.1114 58.8499C38.1114 59.134 38.3436 59.3677 38.6685 59.3677C38.9889 59.3677 39.2157 59.134 39.2157 58.8499C39.2157 58.4773 38.952 58.2969 38.6685 58.2969ZM71.9829 23.9062V1.59392C68.9688 0.456436 66.2814 -0.0811871 63.8055 0.00992018C59.4459 0.27783 55.9827 2.65383 53.1684 5.86063C50.4054 9.00428 48.2877 12.6414 46.2735 16.3046C44.9235 18.7744 43.5978 21.3579 42.2613 23.9062H71.9829ZM15.5781 29.203C17.1621 32.2619 20.2113 37.8745 26.7237 37.8745C32.4738 37.8745 36.0144 32.279 39.0429 26.7296C40.4811 24.0938 41.8797 21.3588 43.2954 18.6698C40.6422 21.615 37.1115 23.9017 31.5414 23.9017H21.2337C16.9164 23.9017 13.806 22.5053 11.3841 20.5009C11.9934 21.7214 12.5523 22.9148 13.0824 23.9946C13.6674 25.2069 14.9796 28.0466 15.5781 29.203ZM6.0435 14.7765C5.2146 13.8176 4.2741 12.9264 3.1293 12.3301C1.665 11.668 0.5895 11.8611 0.0009 12.0541V23.9053H11.3733C9.8613 20.6859 8.262 17.4673 6.0435 14.7765Z" fill="white"/>
</svg>
